<mxfile host="app.diagrams.net" agent="Mozilla/5.0 (Windows NT 10.0; Win64; x64) AppleWebKit/537.36 (KHTML, like Gecko) Chrome/141.0.0.0 Safari/537.36" version="28.2.8" pages="2">
  <diagram name="PÃ¡gina-1" id="YsfWKtCPw2C8xm3MoTjd">
    <mxGraphModel dx="2860" dy="1554" grid="1" gridSize="10" guides="1" tooltips="1" connect="1" arrows="1" fold="1" page="1" pageScale="1" pageWidth="1169" pageHeight="827" math="0" shadow="0">
      <root>
        <mxCell id="0" />
        <mxCell id="1" parent="0" />
        <mxCell id="bs81U0XVVwIqTHEoBs_I-17" style="edgeStyle=orthogonalEdgeStyle;rounded=0;orthogonalLoop=1;jettySize=auto;html=1;exitX=-0.031;exitY=0.096;exitDx=0;exitDy=0;entryX=1;entryY=1;entryDx=0;entryDy=0;exitPerimeter=0;" edge="1" parent="1" source="bs81U0XVVwIqTHEoBs_I-42" target="bs81U0XVVwIqTHEoBs_I-6">
          <mxGeometry relative="1" as="geometry">
            <mxPoint x="120" y="359" as="sourcePoint" />
          </mxGeometry>
        </mxCell>
        <mxCell id="bs81U0XVVwIqTHEoBs_I-22" style="edgeStyle=orthogonalEdgeStyle;rounded=0;orthogonalLoop=1;jettySize=auto;html=1;exitX=0.5;exitY=1;exitDx=0;exitDy=0;entryX=0.5;entryY=0;entryDx=0;entryDy=0;" edge="1" parent="1" source="bs81U0XVVwIqTHEoBs_I-42" target="bs81U0XVVwIqTHEoBs_I-12">
          <mxGeometry relative="1" as="geometry">
            <mxPoint x="180" y="404" as="sourcePoint" />
          </mxGeometry>
        </mxCell>
        <mxCell id="bs81U0XVVwIqTHEoBs_I-27" style="edgeStyle=orthogonalEdgeStyle;rounded=0;orthogonalLoop=1;jettySize=auto;html=1;exitX=-0.031;exitY=0.511;exitDx=0;exitDy=0;entryX=1;entryY=0.5;entryDx=0;entryDy=0;exitPerimeter=0;" edge="1" parent="1" source="bs81U0XVVwIqTHEoBs_I-42" target="bs81U0XVVwIqTHEoBs_I-8">
          <mxGeometry relative="1" as="geometry">
            <mxPoint x="120" y="374" as="sourcePoint" />
          </mxGeometry>
        </mxCell>
        <mxCell id="bs81U0XVVwIqTHEoBs_I-1" value="n_numeclien" style="ellipse;whiteSpace=wrap;html=1;align=center;fontStyle=4;" vertex="1" parent="1">
          <mxGeometry x="130" y="234" width="80" height="40" as="geometry" />
        </mxCell>
        <mxCell id="bs81U0XVVwIqTHEoBs_I-4" value="c_codiclien" style="ellipse;whiteSpace=wrap;html=1;align=center;" vertex="1" parent="1">
          <mxGeometry x="200" y="274" width="80" height="40" as="geometry" />
        </mxCell>
        <mxCell id="bs81U0XVVwIqTHEoBs_I-6" value="c_nomeclien" style="ellipse;whiteSpace=wrap;html=1;align=center;" vertex="1" parent="1">
          <mxGeometry x="20" y="314" width="80" height="40" as="geometry" />
        </mxCell>
        <mxCell id="bs81U0XVVwIqTHEoBs_I-8" value="c_razarclien" style="ellipse;whiteSpace=wrap;html=1;align=center;" vertex="1" parent="1">
          <mxGeometry y="364" width="80" height="40" as="geometry" />
        </mxCell>
        <mxCell id="bs81U0XVVwIqTHEoBs_I-10" value="d_dataclien" style="ellipse;whiteSpace=wrap;html=1;align=center;" vertex="1" parent="1">
          <mxGeometry x="50" y="424" width="80" height="40" as="geometry" />
        </mxCell>
        <mxCell id="bs81U0XVVwIqTHEoBs_I-12" value="c_cnpjclien" style="ellipse;whiteSpace=wrap;html=1;align=center;" vertex="1" parent="1">
          <mxGeometry x="140" y="424" width="80" height="40" as="geometry" />
        </mxCell>
        <mxCell id="bs81U0XVVwIqTHEoBs_I-13" value="c_foneclien" style="ellipse;whiteSpace=wrap;html=1;align=center;" vertex="1" parent="1">
          <mxGeometry x="60" y="264" width="80" height="40" as="geometry" />
        </mxCell>
        <mxCell id="bs81U0XVVwIqTHEoBs_I-14" style="edgeStyle=orthogonalEdgeStyle;rounded=0;orthogonalLoop=1;jettySize=auto;html=1;exitX=0.75;exitY=0;exitDx=0;exitDy=0;entryX=0.388;entryY=1.075;entryDx=0;entryDy=0;entryPerimeter=0;" edge="1" parent="1" source="bs81U0XVVwIqTHEoBs_I-42" target="bs81U0XVVwIqTHEoBs_I-4">
          <mxGeometry relative="1" as="geometry">
            <mxPoint x="210" y="344" as="sourcePoint" />
          </mxGeometry>
        </mxCell>
        <mxCell id="bs81U0XVVwIqTHEoBs_I-15" style="edgeStyle=orthogonalEdgeStyle;rounded=0;orthogonalLoop=1;jettySize=auto;html=1;exitX=0.5;exitY=0;exitDx=0;exitDy=0;entryX=0.425;entryY=1.025;entryDx=0;entryDy=0;entryPerimeter=0;" edge="1" parent="1" source="bs81U0XVVwIqTHEoBs_I-42" target="bs81U0XVVwIqTHEoBs_I-1">
          <mxGeometry relative="1" as="geometry">
            <mxPoint x="180" y="344" as="sourcePoint" />
          </mxGeometry>
        </mxCell>
        <mxCell id="bs81U0XVVwIqTHEoBs_I-16" style="edgeStyle=orthogonalEdgeStyle;rounded=0;orthogonalLoop=1;jettySize=auto;html=1;exitX=0.191;exitY=-0.075;exitDx=0;exitDy=0;entryX=0.775;entryY=1.025;entryDx=0;entryDy=0;entryPerimeter=0;exitPerimeter=0;" edge="1" parent="1" source="bs81U0XVVwIqTHEoBs_I-42" target="bs81U0XVVwIqTHEoBs_I-13">
          <mxGeometry relative="1" as="geometry">
            <mxPoint x="150" y="344" as="sourcePoint" />
          </mxGeometry>
        </mxCell>
        <mxCell id="bs81U0XVVwIqTHEoBs_I-19" style="edgeStyle=orthogonalEdgeStyle;rounded=0;orthogonalLoop=1;jettySize=auto;html=1;exitX=0;exitY=1;exitDx=0;exitDy=0;entryX=0.588;entryY=0;entryDx=0;entryDy=0;entryPerimeter=0;" edge="1" parent="1" source="bs81U0XVVwIqTHEoBs_I-42" target="bs81U0XVVwIqTHEoBs_I-10">
          <mxGeometry relative="1" as="geometry">
            <mxPoint x="120" y="389" as="sourcePoint" />
          </mxGeometry>
        </mxCell>
        <mxCell id="bs81U0XVVwIqTHEoBs_I-38" style="edgeStyle=orthogonalEdgeStyle;rounded=0;orthogonalLoop=1;jettySize=auto;html=1;exitX=1;exitY=0.25;exitDx=0;exitDy=0;entryX=0;entryY=1;entryDx=0;entryDy=0;" edge="1" parent="1" target="bs81U0XVVwIqTHEoBs_I-31">
          <mxGeometry relative="1" as="geometry">
            <mxPoint x="980" y="325" as="sourcePoint" />
          </mxGeometry>
        </mxCell>
        <mxCell id="bs81U0XVVwIqTHEoBs_I-39" style="edgeStyle=orthogonalEdgeStyle;rounded=0;orthogonalLoop=1;jettySize=auto;html=1;exitX=1;exitY=0.5;exitDx=0;exitDy=0;entryX=0;entryY=0.5;entryDx=0;entryDy=0;" edge="1" parent="1" target="bs81U0XVVwIqTHEoBs_I-32">
          <mxGeometry relative="1" as="geometry">
            <mxPoint x="980" y="340" as="sourcePoint" />
          </mxGeometry>
        </mxCell>
        <mxCell id="bs81U0XVVwIqTHEoBs_I-29" value="n_numeforne" style="ellipse;whiteSpace=wrap;html=1;align=center;fontStyle=4;" vertex="1" parent="1">
          <mxGeometry x="840" y="230" width="80" height="40" as="geometry" />
        </mxCell>
        <mxCell id="bs81U0XVVwIqTHEoBs_I-30" value="c_codiforne" style="ellipse;whiteSpace=wrap;html=1;align=center;" vertex="1" parent="1">
          <mxGeometry x="920" y="250" width="80" height="40" as="geometry" />
        </mxCell>
        <mxCell id="bs81U0XVVwIqTHEoBs_I-31" value="c_nomeforne" style="ellipse;whiteSpace=wrap;html=1;align=center;" vertex="1" parent="1">
          <mxGeometry x="1000" y="270" width="80" height="40" as="geometry" />
        </mxCell>
        <mxCell id="bs81U0XVVwIqTHEoBs_I-32" value="c_nomeforne" style="ellipse;whiteSpace=wrap;html=1;align=center;" vertex="1" parent="1">
          <mxGeometry x="1020" y="320" width="80" height="40" as="geometry" />
        </mxCell>
        <mxCell id="bs81U0XVVwIqTHEoBs_I-33" value="c_razaforne" style="ellipse;whiteSpace=wrap;html=1;align=center;" vertex="1" parent="1">
          <mxGeometry x="1030" y="370" width="80" height="40" as="geometry" />
        </mxCell>
        <mxCell id="bs81U0XVVwIqTHEoBs_I-34" value="c_foneforne" style="ellipse;whiteSpace=wrap;html=1;align=center;" vertex="1" parent="1">
          <mxGeometry x="950" y="395" width="80" height="40" as="geometry" />
        </mxCell>
        <mxCell id="bs81U0XVVwIqTHEoBs_I-36" style="edgeStyle=orthogonalEdgeStyle;rounded=0;orthogonalLoop=1;jettySize=auto;html=1;exitX=0.6;exitY=0.125;exitDx=0;exitDy=0;entryX=0.425;entryY=0.95;entryDx=0;entryDy=0;entryPerimeter=0;exitPerimeter=0;" edge="1" parent="1" source="bs81U0XVVwIqTHEoBs_I-44" target="bs81U0XVVwIqTHEoBs_I-30">
          <mxGeometry relative="1" as="geometry">
            <mxPoint x="950" y="310" as="sourcePoint" />
          </mxGeometry>
        </mxCell>
        <mxCell id="bs81U0XVVwIqTHEoBs_I-164" style="edgeStyle=orthogonalEdgeStyle;rounded=0;orthogonalLoop=1;jettySize=auto;html=1;exitX=1;exitY=1;exitDx=0;exitDy=0;entryX=1;entryY=0;entryDx=0;entryDy=0;" edge="1" parent="1" source="bs81U0XVVwIqTHEoBs_I-42" target="bs81U0XVVwIqTHEoBs_I-153">
          <mxGeometry relative="1" as="geometry">
            <Array as="points">
              <mxPoint x="270" y="394" />
              <mxPoint x="270" y="482" />
              <mxPoint x="720" y="482" />
              <mxPoint x="720" y="570" />
            </Array>
          </mxGeometry>
        </mxCell>
        <mxCell id="bs81U0XVVwIqTHEoBs_I-42" value="comclien" style="whiteSpace=wrap;html=1;align=center;" vertex="1" parent="1">
          <mxGeometry x="130" y="354" width="100" height="40" as="geometry" />
        </mxCell>
        <mxCell id="bs81U0XVVwIqTHEoBs_I-45" style="edgeStyle=orthogonalEdgeStyle;rounded=0;orthogonalLoop=1;jettySize=auto;html=1;exitX=0.5;exitY=1;exitDx=0;exitDy=0;entryX=0.5;entryY=0;entryDx=0;entryDy=0;" edge="1" parent="1" source="bs81U0XVVwIqTHEoBs_I-44" target="bs81U0XVVwIqTHEoBs_I-34">
          <mxGeometry relative="1" as="geometry" />
        </mxCell>
        <mxCell id="bs81U0XVVwIqTHEoBs_I-81" style="edgeStyle=orthogonalEdgeStyle;rounded=0;orthogonalLoop=1;jettySize=auto;html=1;exitX=1;exitY=0.75;exitDx=0;exitDy=0;entryX=0;entryY=0.5;entryDx=0;entryDy=0;" edge="1" parent="1" source="bs81U0XVVwIqTHEoBs_I-44" target="bs81U0XVVwIqTHEoBs_I-33">
          <mxGeometry relative="1" as="geometry">
            <Array as="points">
              <mxPoint x="1010" y="350" />
              <mxPoint x="1010" y="390" />
            </Array>
          </mxGeometry>
        </mxCell>
        <mxCell id="bs81U0XVVwIqTHEoBs_I-157" style="edgeStyle=orthogonalEdgeStyle;rounded=0;orthogonalLoop=1;jettySize=auto;html=1;exitX=0;exitY=0;exitDx=0;exitDy=0;entryX=0.5;entryY=1;entryDx=0;entryDy=0;" edge="1" parent="1" source="bs81U0XVVwIqTHEoBs_I-44" target="bs81U0XVVwIqTHEoBs_I-29">
          <mxGeometry relative="1" as="geometry" />
        </mxCell>
        <mxCell id="bs81U0XVVwIqTHEoBs_I-158" style="edgeStyle=orthogonalEdgeStyle;rounded=0;orthogonalLoop=1;jettySize=auto;html=1;exitX=0;exitY=1;exitDx=0;exitDy=0;entryX=0;entryY=0;entryDx=0;entryDy=0;" edge="1" parent="1" source="bs81U0XVVwIqTHEoBs_I-44" target="bs81U0XVVwIqTHEoBs_I-148">
          <mxGeometry relative="1" as="geometry">
            <Array as="points">
              <mxPoint x="790" y="360" />
              <mxPoint x="790" y="530" />
              <mxPoint x="820" y="530" />
            </Array>
          </mxGeometry>
        </mxCell>
        <mxCell id="bs81U0XVVwIqTHEoBs_I-44" value="comforne" style="whiteSpace=wrap;html=1;align=center;" vertex="1" parent="1">
          <mxGeometry x="880" y="320" width="100" height="40" as="geometry" />
        </mxCell>
        <mxCell id="bs81U0XVVwIqTHEoBs_I-56" style="edgeStyle=orthogonalEdgeStyle;rounded=0;orthogonalLoop=1;jettySize=auto;html=1;exitX=0.25;exitY=0;exitDx=0;exitDy=0;entryX=0.5;entryY=1;entryDx=0;entryDy=0;" edge="1" parent="1" source="bs81U0XVVwIqTHEoBs_I-46" target="bs81U0XVVwIqTHEoBs_I-47">
          <mxGeometry relative="1" as="geometry" />
        </mxCell>
        <mxCell id="bs81U0XVVwIqTHEoBs_I-58" value="" style="edgeStyle=orthogonalEdgeStyle;rounded=0;orthogonalLoop=1;jettySize=auto;html=1;" edge="1" parent="1" source="bs81U0XVVwIqTHEoBs_I-46" target="bs81U0XVVwIqTHEoBs_I-55">
          <mxGeometry relative="1" as="geometry" />
        </mxCell>
        <mxCell id="bs81U0XVVwIqTHEoBs_I-65" style="edgeStyle=orthogonalEdgeStyle;rounded=0;orthogonalLoop=1;jettySize=auto;html=1;exitX=0;exitY=0;exitDx=0;exitDy=0;entryX=1;entryY=1;entryDx=0;entryDy=0;" edge="1" parent="1" source="bs81U0XVVwIqTHEoBs_I-46" target="bs81U0XVVwIqTHEoBs_I-49">
          <mxGeometry relative="1" as="geometry" />
        </mxCell>
        <mxCell id="bs81U0XVVwIqTHEoBs_I-71" style="edgeStyle=orthogonalEdgeStyle;rounded=0;orthogonalLoop=1;jettySize=auto;html=1;exitX=0;exitY=1;exitDx=0;exitDy=0;entryX=1;entryY=0;entryDx=0;entryDy=0;" edge="1" parent="1" source="bs81U0XVVwIqTHEoBs_I-46" target="bs81U0XVVwIqTHEoBs_I-53">
          <mxGeometry relative="1" as="geometry" />
        </mxCell>
        <mxCell id="bs81U0XVVwIqTHEoBs_I-79" style="edgeStyle=orthogonalEdgeStyle;rounded=0;orthogonalLoop=1;jettySize=auto;html=1;exitX=0;exitY=0.5;exitDx=0;exitDy=0;entryX=1;entryY=0.5;entryDx=0;entryDy=0;" edge="1" parent="1" source="bs81U0XVVwIqTHEoBs_I-46" target="bs81U0XVVwIqTHEoBs_I-51">
          <mxGeometry relative="1" as="geometry">
            <Array as="points">
              <mxPoint x="143" y="590" />
            </Array>
          </mxGeometry>
        </mxCell>
        <mxCell id="bs81U0XVVwIqTHEoBs_I-46" value="comvende" style="whiteSpace=wrap;html=1;align=center;" vertex="1" parent="1">
          <mxGeometry x="143" y="574" width="100" height="40" as="geometry" />
        </mxCell>
        <mxCell id="bs81U0XVVwIqTHEoBs_I-47" value="n_numeclien" style="ellipse;whiteSpace=wrap;html=1;align=center;fontStyle=4;" vertex="1" parent="1">
          <mxGeometry x="143" y="506" width="80" height="40" as="geometry" />
        </mxCell>
        <mxCell id="bs81U0XVVwIqTHEoBs_I-49" value="c_codivende" style="ellipse;whiteSpace=wrap;html=1;align=center;" vertex="1" parent="1">
          <mxGeometry x="63" y="520" width="80" height="40" as="geometry" />
        </mxCell>
        <mxCell id="bs81U0XVVwIqTHEoBs_I-51" value="c_nomevende" style="ellipse;whiteSpace=wrap;html=1;align=center;" vertex="1" parent="1">
          <mxGeometry x="29" y="569.5" width="80" height="40" as="geometry" />
        </mxCell>
        <mxCell id="bs81U0XVVwIqTHEoBs_I-53" value="c_razavende" style="ellipse;whiteSpace=wrap;html=1;align=center;" vertex="1" parent="1">
          <mxGeometry x="43" y="620" width="80" height="40" as="geometry" />
        </mxCell>
        <mxCell id="bs81U0XVVwIqTHEoBs_I-54" value="c_fonevende" style="ellipse;whiteSpace=wrap;html=1;align=center;" vertex="1" parent="1">
          <mxGeometry x="123" y="660" width="80" height="40" as="geometry" />
        </mxCell>
        <mxCell id="bs81U0XVVwIqTHEoBs_I-55" value="c_procvende" style="ellipse;whiteSpace=wrap;html=1;align=center;" vertex="1" parent="1">
          <mxGeometry x="210" y="660" width="80" height="40" as="geometry" />
        </mxCell>
        <mxCell id="bs81U0XVVwIqTHEoBs_I-61" style="edgeStyle=orthogonalEdgeStyle;rounded=0;orthogonalLoop=1;jettySize=auto;html=1;exitX=0.25;exitY=1;exitDx=0;exitDy=0;entryX=0.569;entryY=-0.029;entryDx=0;entryDy=0;entryPerimeter=0;" edge="1" parent="1" source="bs81U0XVVwIqTHEoBs_I-46" target="bs81U0XVVwIqTHEoBs_I-54">
          <mxGeometry relative="1" as="geometry" />
        </mxCell>
        <mxCell id="bs81U0XVVwIqTHEoBs_I-85" value="n_numevenda" style="ellipse;whiteSpace=wrap;html=1;align=center;fontStyle=4;" vertex="1" parent="1">
          <mxGeometry x="825" y="487" width="85" height="40" as="geometry" />
        </mxCell>
        <mxCell id="bs81U0XVVwIqTHEoBs_I-86" value="c_codivenda" style="ellipse;whiteSpace=wrap;html=1;align=center;" vertex="1" parent="1">
          <mxGeometry x="910" y="487" width="80" height="40" as="geometry" />
        </mxCell>
        <mxCell id="bs81U0XVVwIqTHEoBs_I-88" value="n_numeforne" style="ellipse;whiteSpace=wrap;html=1;align=center;" vertex="1" parent="1">
          <mxGeometry x="1030" y="523" width="80" height="40" as="geometry" />
        </mxCell>
        <mxCell id="bs81U0XVVwIqTHEoBs_I-90" value="n_valovenda" style="ellipse;whiteSpace=wrap;html=1;align=center;" vertex="1" parent="1">
          <mxGeometry x="1038" y="603" width="80" height="40" as="geometry" />
        </mxCell>
        <mxCell id="bs81U0XVVwIqTHEoBs_I-99" style="edgeStyle=orthogonalEdgeStyle;rounded=0;orthogonalLoop=1;jettySize=auto;html=1;exitX=0.25;exitY=0;exitDx=0;exitDy=0;" edge="1" parent="1" target="bs81U0XVVwIqTHEoBs_I-85">
          <mxGeometry relative="1" as="geometry">
            <mxPoint x="885" y="564.5" as="sourcePoint" />
          </mxGeometry>
        </mxCell>
        <mxCell id="bs81U0XVVwIqTHEoBs_I-106" style="edgeStyle=orthogonalEdgeStyle;rounded=0;orthogonalLoop=1;jettySize=auto;html=1;exitX=0.75;exitY=1;exitDx=0;exitDy=0;entryX=0.5;entryY=0;entryDx=0;entryDy=0;" edge="1" parent="1" target="bs81U0XVVwIqTHEoBs_I-97">
          <mxGeometry relative="1" as="geometry">
            <mxPoint x="935" y="604.5" as="sourcePoint" />
          </mxGeometry>
        </mxCell>
        <mxCell id="bs81U0XVVwIqTHEoBs_I-107" style="edgeStyle=orthogonalEdgeStyle;rounded=0;orthogonalLoop=1;jettySize=auto;html=1;exitX=0;exitY=1;exitDx=0;exitDy=0;entryX=0.5;entryY=0;entryDx=0;entryDy=0;" edge="1" parent="1" target="bs81U0XVVwIqTHEoBs_I-98">
          <mxGeometry relative="1" as="geometry">
            <mxPoint x="860" y="604.5" as="sourcePoint" />
          </mxGeometry>
        </mxCell>
        <mxCell id="bs81U0XVVwIqTHEoBs_I-96" value="n_descvenda" style="ellipse;whiteSpace=wrap;html=1;align=center;" vertex="1" parent="1">
          <mxGeometry x="980" y="643" width="80" height="40" as="geometry" />
        </mxCell>
        <mxCell id="bs81U0XVVwIqTHEoBs_I-97" value="n_totavenda" style="ellipse;whiteSpace=wrap;html=1;align=center;" vertex="1" parent="1">
          <mxGeometry x="890" y="643" width="80" height="40" as="geometry" />
        </mxCell>
        <mxCell id="bs81U0XVVwIqTHEoBs_I-98" value="n_totavenda" style="ellipse;whiteSpace=wrap;html=1;align=center;" vertex="1" parent="1">
          <mxGeometry x="810" y="643" width="80" height="40" as="geometry" />
        </mxCell>
        <mxCell id="bs81U0XVVwIqTHEoBs_I-100" style="edgeStyle=orthogonalEdgeStyle;rounded=0;orthogonalLoop=1;jettySize=auto;html=1;exitX=0.5;exitY=0;exitDx=0;exitDy=0;" edge="1" parent="1" target="bs81U0XVVwIqTHEoBs_I-86">
          <mxGeometry relative="1" as="geometry">
            <mxPoint x="910" y="564.5" as="sourcePoint" />
          </mxGeometry>
        </mxCell>
        <mxCell id="bs81U0XVVwIqTHEoBs_I-102" style="edgeStyle=orthogonalEdgeStyle;rounded=0;orthogonalLoop=1;jettySize=auto;html=1;exitX=1;exitY=0.25;exitDx=0;exitDy=0;" edge="1" parent="1" target="bs81U0XVVwIqTHEoBs_I-88">
          <mxGeometry relative="1" as="geometry">
            <mxPoint x="960" y="574.5" as="sourcePoint" />
            <Array as="points">
              <mxPoint x="960" y="597" />
              <mxPoint x="960" y="567" />
              <mxPoint x="1010" y="567" />
              <mxPoint x="1010" y="547" />
            </Array>
          </mxGeometry>
        </mxCell>
        <mxCell id="bs81U0XVVwIqTHEoBs_I-104" style="edgeStyle=orthogonalEdgeStyle;rounded=0;orthogonalLoop=1;jettySize=auto;html=1;exitX=1;exitY=0.75;exitDx=0;exitDy=0;entryX=-0.003;entryY=0.387;entryDx=0;entryDy=0;entryPerimeter=0;" edge="1" parent="1" target="bs81U0XVVwIqTHEoBs_I-90">
          <mxGeometry relative="1" as="geometry">
            <mxPoint x="960" y="594.5" as="sourcePoint" />
          </mxGeometry>
        </mxCell>
        <mxCell id="bs81U0XVVwIqTHEoBs_I-105" style="edgeStyle=orthogonalEdgeStyle;rounded=0;orthogonalLoop=1;jettySize=auto;html=1;exitX=1;exitY=1;exitDx=0;exitDy=0;entryX=0.5;entryY=0;entryDx=0;entryDy=0;" edge="1" parent="1" target="bs81U0XVVwIqTHEoBs_I-96">
          <mxGeometry relative="1" as="geometry">
            <mxPoint x="960" y="604.5" as="sourcePoint" />
            <Array as="points">
              <mxPoint x="1020" y="627" />
            </Array>
          </mxGeometry>
        </mxCell>
        <mxCell id="bs81U0XVVwIqTHEoBs_I-109" style="edgeStyle=orthogonalEdgeStyle;rounded=0;orthogonalLoop=1;jettySize=auto;html=1;exitX=0.25;exitY=0;exitDx=0;exitDy=0;entryX=0.588;entryY=1;entryDx=0;entryDy=0;entryPerimeter=0;" edge="1" parent="1" source="bs81U0XVVwIqTHEoBs_I-114" target="bs81U0XVVwIqTHEoBs_I-115">
          <mxGeometry relative="1" as="geometry">
            <Array as="points">
              <mxPoint x="168" y="790" />
              <mxPoint x="190" y="790" />
            </Array>
          </mxGeometry>
        </mxCell>
        <mxCell id="bs81U0XVVwIqTHEoBs_I-110" value="" style="edgeStyle=orthogonalEdgeStyle;rounded=0;orthogonalLoop=1;jettySize=auto;html=1;" edge="1" parent="1" source="bs81U0XVVwIqTHEoBs_I-114" target="bs81U0XVVwIqTHEoBs_I-120">
          <mxGeometry relative="1" as="geometry" />
        </mxCell>
        <mxCell id="bs81U0XVVwIqTHEoBs_I-111" style="edgeStyle=orthogonalEdgeStyle;rounded=0;orthogonalLoop=1;jettySize=auto;html=1;exitX=0;exitY=0;exitDx=0;exitDy=0;entryX=1;entryY=1;entryDx=0;entryDy=0;" edge="1" parent="1" source="bs81U0XVVwIqTHEoBs_I-114" target="bs81U0XVVwIqTHEoBs_I-116">
          <mxGeometry relative="1" as="geometry" />
        </mxCell>
        <mxCell id="bs81U0XVVwIqTHEoBs_I-112" style="edgeStyle=orthogonalEdgeStyle;rounded=0;orthogonalLoop=1;jettySize=auto;html=1;exitX=0;exitY=1;exitDx=0;exitDy=0;entryX=1;entryY=0;entryDx=0;entryDy=0;" edge="1" parent="1" source="bs81U0XVVwIqTHEoBs_I-114" target="bs81U0XVVwIqTHEoBs_I-118">
          <mxGeometry relative="1" as="geometry" />
        </mxCell>
        <mxCell id="bs81U0XVVwIqTHEoBs_I-113" style="edgeStyle=orthogonalEdgeStyle;rounded=0;orthogonalLoop=1;jettySize=auto;html=1;exitX=0;exitY=0.5;exitDx=0;exitDy=0;entryX=1;entryY=0.5;entryDx=0;entryDy=0;" edge="1" parent="1" source="bs81U0XVVwIqTHEoBs_I-114" target="bs81U0XVVwIqTHEoBs_I-117">
          <mxGeometry relative="1" as="geometry">
            <Array as="points">
              <mxPoint x="143" y="823" />
            </Array>
          </mxGeometry>
        </mxCell>
        <mxCell id="bs81U0XVVwIqTHEoBs_I-114" value="comprodu" style="whiteSpace=wrap;html=1;align=center;" vertex="1" parent="1">
          <mxGeometry x="143" y="807" width="100" height="40" as="geometry" />
        </mxCell>
        <mxCell id="bs81U0XVVwIqTHEoBs_I-115" value="n_numeprodu" style="ellipse;whiteSpace=wrap;html=1;align=center;fontStyle=4;" vertex="1" parent="1">
          <mxGeometry x="143" y="739" width="80" height="40" as="geometry" />
        </mxCell>
        <mxCell id="bs81U0XVVwIqTHEoBs_I-116" value="c_codiprodu" style="ellipse;whiteSpace=wrap;html=1;align=center;" vertex="1" parent="1">
          <mxGeometry x="63" y="753" width="80" height="40" as="geometry" />
        </mxCell>
        <mxCell id="bs81U0XVVwIqTHEoBs_I-117" value="c_descprodu" style="ellipse;whiteSpace=wrap;html=1;align=center;" vertex="1" parent="1">
          <mxGeometry x="29" y="802.5" width="80" height="40" as="geometry" />
        </mxCell>
        <mxCell id="bs81U0XVVwIqTHEoBs_I-118" value="n_valorprodu" style="ellipse;whiteSpace=wrap;html=1;align=center;" vertex="1" parent="1">
          <mxGeometry x="43" y="853" width="80" height="40" as="geometry" />
        </mxCell>
        <mxCell id="bs81U0XVVwIqTHEoBs_I-119" value="c_situprodu" style="ellipse;whiteSpace=wrap;html=1;align=center;" vertex="1" parent="1">
          <mxGeometry x="123" y="893" width="80" height="40" as="geometry" />
        </mxCell>
        <mxCell id="bs81U0XVVwIqTHEoBs_I-120" value="n_numeforne" style="ellipse;whiteSpace=wrap;html=1;align=center;" vertex="1" parent="1">
          <mxGeometry x="210" y="893" width="80" height="40" as="geometry" />
        </mxCell>
        <mxCell id="bs81U0XVVwIqTHEoBs_I-121" style="edgeStyle=orthogonalEdgeStyle;rounded=0;orthogonalLoop=1;jettySize=auto;html=1;exitX=0.25;exitY=1;exitDx=0;exitDy=0;entryX=0.569;entryY=-0.029;entryDx=0;entryDy=0;entryPerimeter=0;" edge="1" parent="1" source="bs81U0XVVwIqTHEoBs_I-114" target="bs81U0XVVwIqTHEoBs_I-119">
          <mxGeometry relative="1" as="geometry" />
        </mxCell>
        <mxCell id="bs81U0XVVwIqTHEoBs_I-135" style="edgeStyle=orthogonalEdgeStyle;rounded=0;orthogonalLoop=1;jettySize=auto;html=1;exitX=0.388;exitY=0.033;exitDx=0;exitDy=0;entryX=0.5;entryY=1;entryDx=0;entryDy=0;exitPerimeter=0;" edge="1" parent="1" source="bs81U0XVVwIqTHEoBs_I-147" target="bs81U0XVVwIqTHEoBs_I-138">
          <mxGeometry relative="1" as="geometry">
            <mxPoint x="860" y="799" as="sourcePoint" />
          </mxGeometry>
        </mxCell>
        <mxCell id="bs81U0XVVwIqTHEoBs_I-136" style="edgeStyle=orthogonalEdgeStyle;rounded=0;orthogonalLoop=1;jettySize=auto;html=1;exitX=1;exitY=0.25;exitDx=0;exitDy=0;entryX=0;entryY=1;entryDx=0;entryDy=0;" edge="1" parent="1" target="bs81U0XVVwIqTHEoBs_I-140">
          <mxGeometry relative="1" as="geometry">
            <mxPoint x="920" y="814" as="sourcePoint" />
          </mxGeometry>
        </mxCell>
        <mxCell id="bs81U0XVVwIqTHEoBs_I-137" style="edgeStyle=orthogonalEdgeStyle;rounded=0;orthogonalLoop=1;jettySize=auto;html=1;exitX=1;exitY=0.5;exitDx=0;exitDy=0;entryX=0;entryY=0.5;entryDx=0;entryDy=0;" edge="1" parent="1" target="bs81U0XVVwIqTHEoBs_I-141">
          <mxGeometry relative="1" as="geometry">
            <mxPoint x="920" y="829" as="sourcePoint" />
          </mxGeometry>
        </mxCell>
        <mxCell id="bs81U0XVVwIqTHEoBs_I-138" value="n_numeivenda" style="ellipse;whiteSpace=wrap;html=1;align=center;fontStyle=4;" vertex="1" parent="1">
          <mxGeometry x="775" y="719" width="85" height="42.5" as="geometry" />
        </mxCell>
        <mxCell id="bs81U0XVVwIqTHEoBs_I-139" value="n_numevenda" style="ellipse;whiteSpace=wrap;html=1;align=center;" vertex="1" parent="1">
          <mxGeometry x="860" y="739" width="80" height="40" as="geometry" />
        </mxCell>
        <mxCell id="bs81U0XVVwIqTHEoBs_I-140" value="n_numeprodu" style="ellipse;whiteSpace=wrap;html=1;align=center;" vertex="1" parent="1">
          <mxGeometry x="940" y="759" width="80" height="40" as="geometry" />
        </mxCell>
        <mxCell id="bs81U0XVVwIqTHEoBs_I-141" value="n_valoivenda" style="ellipse;whiteSpace=wrap;html=1;align=center;" vertex="1" parent="1">
          <mxGeometry x="960" y="809" width="80" height="40" as="geometry" />
        </mxCell>
        <mxCell id="bs81U0XVVwIqTHEoBs_I-142" value="n_qtdivenda" style="ellipse;whiteSpace=wrap;html=1;align=center;" vertex="1" parent="1">
          <mxGeometry x="970" y="859" width="80" height="40" as="geometry" />
        </mxCell>
        <mxCell id="bs81U0XVVwIqTHEoBs_I-143" value="n_descivenda" style="ellipse;whiteSpace=wrap;html=1;align=center;" vertex="1" parent="1">
          <mxGeometry x="890" y="884" width="80" height="40" as="geometry" />
        </mxCell>
        <mxCell id="bs81U0XVVwIqTHEoBs_I-144" style="edgeStyle=orthogonalEdgeStyle;rounded=0;orthogonalLoop=1;jettySize=auto;html=1;exitX=0.6;exitY=0.125;exitDx=0;exitDy=0;entryX=0.425;entryY=0.95;entryDx=0;entryDy=0;entryPerimeter=0;exitPerimeter=0;" edge="1" parent="1" source="bs81U0XVVwIqTHEoBs_I-147" target="bs81U0XVVwIqTHEoBs_I-139">
          <mxGeometry relative="1" as="geometry">
            <mxPoint x="890" y="799" as="sourcePoint" />
          </mxGeometry>
        </mxCell>
        <mxCell id="bs81U0XVVwIqTHEoBs_I-145" style="edgeStyle=orthogonalEdgeStyle;rounded=0;orthogonalLoop=1;jettySize=auto;html=1;exitX=0.5;exitY=1;exitDx=0;exitDy=0;entryX=0.5;entryY=0;entryDx=0;entryDy=0;" edge="1" parent="1" source="bs81U0XVVwIqTHEoBs_I-147" target="bs81U0XVVwIqTHEoBs_I-143">
          <mxGeometry relative="1" as="geometry" />
        </mxCell>
        <mxCell id="bs81U0XVVwIqTHEoBs_I-146" style="edgeStyle=orthogonalEdgeStyle;rounded=0;orthogonalLoop=1;jettySize=auto;html=1;exitX=1;exitY=0.75;exitDx=0;exitDy=0;entryX=0;entryY=0.5;entryDx=0;entryDy=0;" edge="1" parent="1" source="bs81U0XVVwIqTHEoBs_I-147" target="bs81U0XVVwIqTHEoBs_I-142">
          <mxGeometry relative="1" as="geometry">
            <Array as="points">
              <mxPoint x="950" y="839" />
              <mxPoint x="950" y="879" />
            </Array>
          </mxGeometry>
        </mxCell>
        <mxCell id="bs81U0XVVwIqTHEoBs_I-147" value="comivenda" style="whiteSpace=wrap;html=1;align=center;" vertex="1" parent="1">
          <mxGeometry x="820" y="809" width="100" height="40" as="geometry" />
        </mxCell>
        <mxCell id="bs81U0XVVwIqTHEoBs_I-150" style="edgeStyle=orthogonalEdgeStyle;rounded=0;orthogonalLoop=1;jettySize=auto;html=1;exitX=0;exitY=0.5;exitDx=0;exitDy=0;entryX=1;entryY=0.5;entryDx=0;entryDy=0;" edge="1" parent="1" source="bs81U0XVVwIqTHEoBs_I-148" target="bs81U0XVVwIqTHEoBs_I-46">
          <mxGeometry relative="1" as="geometry" />
        </mxCell>
        <mxCell id="bs81U0XVVwIqTHEoBs_I-156" style="edgeStyle=orthogonalEdgeStyle;rounded=0;orthogonalLoop=1;jettySize=auto;html=1;exitX=1;exitY=0.25;exitDx=0;exitDy=0;entryX=0;entryY=0.5;entryDx=0;entryDy=0;" edge="1" parent="1" source="bs81U0XVVwIqTHEoBs_I-148" target="bs81U0XVVwIqTHEoBs_I-155">
          <mxGeometry relative="1" as="geometry" />
        </mxCell>
        <mxCell id="bs81U0XVVwIqTHEoBs_I-148" value="comvenda" style="shape=associativeEntity;whiteSpace=wrap;html=1;align=center;" vertex="1" parent="1">
          <mxGeometry x="820" y="563" width="140" height="60" as="geometry" />
        </mxCell>
        <mxCell id="bs81U0XVVwIqTHEoBs_I-152" value="" style="shape=rhombus;perimeter=rhombusPerimeter;whiteSpace=wrap;html=1;align=center;" vertex="1" parent="1">
          <mxGeometry x="525" y="568" width="90" height="50" as="geometry" />
        </mxCell>
        <mxCell id="bs81U0XVVwIqTHEoBs_I-153" value="N" style="text;html=1;whiteSpace=wrap;strokeColor=none;fillColor=none;align=center;verticalAlign=middle;rounded=0;" vertex="1" parent="1">
          <mxGeometry x="760" y="570" width="60" height="30" as="geometry" />
        </mxCell>
        <mxCell id="bs81U0XVVwIqTHEoBs_I-154" value="1" style="text;html=1;whiteSpace=wrap;strokeColor=none;fillColor=none;align=center;verticalAlign=middle;rounded=0;" vertex="1" parent="1">
          <mxGeometry x="270" y="560" width="60" height="30" as="geometry" />
        </mxCell>
        <mxCell id="bs81U0XVVwIqTHEoBs_I-155" value="&lt;span style=&quot;border-bottom: 1px dotted&quot;&gt;n_numevende&lt;/span&gt;" style="ellipse;whiteSpace=wrap;html=1;align=center;" vertex="1" parent="1">
          <mxGeometry x="1038" y="564" width="80" height="40" as="geometry" />
        </mxCell>
        <mxCell id="bs81U0XVVwIqTHEoBs_I-159" value="" style="shape=rhombus;perimeter=rhombusPerimeter;whiteSpace=wrap;html=1;align=center;" vertex="1" parent="1">
          <mxGeometry x="745" y="390" width="90" height="50" as="geometry" />
        </mxCell>
        <mxCell id="bs81U0XVVwIqTHEoBs_I-161" value="N" style="text;html=1;whiteSpace=wrap;strokeColor=none;fillColor=none;align=center;verticalAlign=middle;rounded=0;" vertex="1" parent="1">
          <mxGeometry x="775" y="506" width="60" height="30" as="geometry" />
        </mxCell>
        <mxCell id="bs81U0XVVwIqTHEoBs_I-162" value="1" style="text;html=1;whiteSpace=wrap;strokeColor=none;fillColor=none;align=center;verticalAlign=middle;rounded=0;" vertex="1" parent="1">
          <mxGeometry x="810" y="330" width="60" height="30" as="geometry" />
        </mxCell>
        <mxCell id="bs81U0XVVwIqTHEoBs_I-165" value="" style="shape=rhombus;perimeter=rhombusPerimeter;whiteSpace=wrap;html=1;align=center;" vertex="1" parent="1">
          <mxGeometry x="490" y="454" width="90" height="50" as="geometry" />
        </mxCell>
        <mxCell id="bs81U0XVVwIqTHEoBs_I-167" value="1" style="text;html=1;whiteSpace=wrap;strokeColor=none;fillColor=none;align=center;verticalAlign=middle;rounded=0;" vertex="1" parent="1">
          <mxGeometry x="270" y="450" width="60" height="30" as="geometry" />
        </mxCell>
        <mxCell id="bs81U0XVVwIqTHEoBs_I-169" value="N" style="text;html=1;whiteSpace=wrap;strokeColor=none;fillColor=none;align=center;verticalAlign=middle;rounded=0;" vertex="1" parent="1">
          <mxGeometry x="650" y="450" width="60" height="30" as="geometry" />
        </mxCell>
        <mxCell id="bs81U0XVVwIqTHEoBs_I-174" style="edgeStyle=orthogonalEdgeStyle;rounded=0;orthogonalLoop=1;jettySize=auto;html=1;exitX=1;exitY=0;exitDx=0;exitDy=0;" edge="1" parent="1" source="bs81U0XVVwIqTHEoBs_I-148">
          <mxGeometry relative="1" as="geometry">
            <mxPoint x="960" y="560" as="sourcePoint" />
            <mxPoint x="1013" y="520" as="targetPoint" />
            <Array as="points">
              <mxPoint x="960" y="537" />
              <mxPoint x="1013" y="537" />
            </Array>
          </mxGeometry>
        </mxCell>
        <mxCell id="bs81U0XVVwIqTHEoBs_I-175" value="&lt;span style=&quot;border-bottom: 1px dotted&quot;&gt;n_numeclien&lt;/span&gt;" style="ellipse;whiteSpace=wrap;html=1;align=center;" vertex="1" parent="1">
          <mxGeometry x="990" y="477" width="80" height="43" as="geometry" />
        </mxCell>
      </root>
    </mxGraphModel>
  </diagram>
  <diagram id="SNcNz6v8rOgbrvwzq0i8" name="PÃ¡gina-2">
    <mxGraphModel dx="1665" dy="829" grid="0" gridSize="10" guides="1" tooltips="1" connect="1" arrows="1" fold="1" page="0" pageScale="1" pageWidth="827" pageHeight="1169" math="0" shadow="0">
      <root>
        <mxCell id="0" />
        <mxCell id="1" parent="0" />
      </root>
    </mxGraphModel>
  </diagram>
</mxfile>
